<?xml version="1.0" encoding="utf-8"?>
<!-- Generator: Adobe Illustrator 21.0.0, SVG Export Plug-In . SVG Version: 6.00 Build 0)  -->
<svg version="1.1" id="Слой_1" xmlns="http://www.w3.org/2000/svg" xmlns:xlink="http://www.w3.org/1999/xlink" x="0px" y="0px"
	 viewBox="0 0 40 40" style="enable-background:new 0 0 40 40;" xml:space="preserve">
<style type="text/css">
	.st0{fill:#CCCCCC;}
	.st1{fill:#3F6890;}
	.st2{fill:#FFFFFF;}
</style>
<path class="st0" d="M20,1c10.5,0,19,8.5,19,19s-8.5,19-19,19S1,30.5,1,20S9.5,1,20,1 M20,0C9,0,0,9,0,20s9,20,20,20s20-9,20-20
	S31,0,20,0L20,0z"/>
<circle class="st1" cx="20" cy="20" r="16"/>
<g>
	<path class="st2" d="M29.4,14.3c0,0.6-0.2,1.1-0.5,1.6c-0.3,0.5-0.8,0.9-1.3,1.3c-2.6,1.8-4.3,3-4.9,3.4c-0.1,0-0.2,0.2-0.4,0.3
		c-0.2,0.2-0.4,0.3-0.6,0.4c-0.2,0.1-0.3,0.2-0.5,0.3c-0.2,0.1-0.4,0.2-0.6,0.3C20.3,22,20.2,22,20,22h0h0c-0.2,0-0.3,0-0.5-0.1
		c-0.2-0.1-0.4-0.2-0.6-0.3c-0.2-0.1-0.4-0.2-0.5-0.3c-0.2-0.1-0.3-0.2-0.6-0.4s-0.4-0.3-0.4-0.3c-0.6-0.4-1.6-1.1-2.7-1.9
		c-1.2-0.8-1.9-1.3-2.1-1.5c-0.4-0.3-0.8-0.7-1.2-1.2c-0.4-0.5-0.6-1-0.6-1.4c0-0.5,0.1-1,0.4-1.4c0.3-0.4,0.7-0.5,1.2-0.5h15.4
		c0.5,0,0.8,0.2,1.2,0.5C29.2,13.4,29.4,13.8,29.4,14.3z M29.4,17.4v8.3c0,0.5-0.2,0.9-0.5,1.2s-0.7,0.5-1.2,0.5H12.3
		c-0.5,0-0.9-0.2-1.2-0.5c-0.3-0.3-0.5-0.7-0.5-1.2v-8.3c0.3,0.3,0.7,0.6,1.1,0.9c2.5,1.7,4.3,2.9,5.2,3.6c0.4,0.3,0.7,0.5,1,0.7
		c0.2,0.2,0.6,0.3,1,0.5c0.4,0.2,0.8,0.3,1.2,0.3h0h0c0.4,0,0.7-0.1,1.2-0.3c0.4-0.2,0.7-0.3,1-0.5c0.2-0.2,0.6-0.4,1-0.7
		c1.2-0.9,2.9-2.1,5.2-3.6C28.7,18,29.1,17.7,29.4,17.4z"/>
</g>
</svg>
