<?xml version="1.0" encoding="utf-8"?>
<!-- Generator: Adobe Illustrator 21.0.0, SVG Export Plug-In . SVG Version: 6.00 Build 0)  -->
<svg version="1.1" id="Слой_1" xmlns="http://www.w3.org/2000/svg" xmlns:xlink="http://www.w3.org/1999/xlink" x="0px" y="0px"
	 viewBox="0 0 40 40" style="enable-background:new 0 0 40 40;" xml:space="preserve">
<style type="text/css">
	.st0{fill:#CCCCCC;}
	.st1{fill:#3F6890;}
	.st2{fill:#FFFFFF;}
</style>
<path class="st0" d="M20,1c10.5,0,19,8.5,19,19s-8.5,19-19,19S1,30.5,1,20S9.5,1,20,1 M20,0C9,0,0,9,0,20s9,20,20,20s20-9,20-20
	S31,0,20,0L20,0z"/>
<circle class="st1" cx="20" cy="20" r="16"/>
<g>
	<path class="st2" d="M24.7,10.5v3h-1.8c-0.6,0-1.1,0.1-1.3,0.4s-0.3,0.7-0.3,1.2v2.1h3.3l-0.4,3.4h-2.9v8.6h-3.5v-8.6h-2.9v-3.4
		h2.9v-2.5c0-1.4,0.4-2.5,1.2-3.3s1.8-1.2,3.1-1.2C23.2,10.4,24.1,10.4,24.7,10.5z"/>
</g>
</svg>
