<?xml version="1.0" encoding="utf-8"?>
<!-- Generator: Adobe Illustrator 21.0.0, SVG Export Plug-In . SVG Version: 6.00 Build 0)  -->
<svg version="1.1" id="Слой_1" xmlns="http://www.w3.org/2000/svg" xmlns:xlink="http://www.w3.org/1999/xlink" x="0px" y="0px"
	 viewBox="0 0 40 40" style="enable-background:new 0 0 40 40;" xml:space="preserve">
<style type="text/css">
	.st0{fill:#CCCCCC;}
	.st1{fill:#3F6890;}
</style>
<path class="st0" d="M20,1c10.5,0,19,8.5,19,19s-8.5,19-19,19S1,30.5,1,20S9.5,1,20,1 M20,0C9,0,0,9,0,20s9,20,20,20s20-9,20-20
	S31,0,20,0L20,0z"/>
<path class="st0" d="M20,5c8.3,0,15,6.7,15,15s-6.7,15-15,15S5,28.3,5,20S11.7,5,20,5 M20,4C11.2,4,4,11.2,4,20s7.2,16,16,16
	s16-7.2,16-16S28.8,4,20,4L20,4z"/>
<g>
	<path class="st1" d="M28.7,20c0,1.7,0,2.9-0.1,3.6c-0.1,1.6-0.5,2.8-1.4,3.6s-2.1,1.3-3.6,1.4c-0.7,0-1.9,0.1-3.6,0.1
		c-1.7,0-2.9,0-3.6-0.1c-1.6-0.1-2.8-0.5-3.6-1.4s-1.3-2.1-1.4-3.6c0-0.7-0.1-1.9-0.1-3.6s0-2.9,0.1-3.6c0.1-1.6,0.5-2.8,1.4-3.6
		s2.1-1.3,3.6-1.4c0.7,0,1.9-0.1,3.6-0.1c1.7,0,2.9,0,3.6,0.1c1.6,0.1,2.8,0.5,3.6,1.4s1.3,2.1,1.4,3.6C28.7,17.1,28.7,18.3,28.7,20
		z M20.9,12.9c-0.5,0-0.8,0-0.9,0s-0.3,0-0.9,0c-0.5,0-0.9,0-1.2,0c-0.3,0-0.6,0-1.1,0c-0.5,0-0.8,0.1-1.2,0.1s-0.6,0.1-0.8,0.2
		c-0.4,0.2-0.7,0.4-1,0.7c-0.3,0.3-0.5,0.6-0.7,1c-0.1,0.2-0.2,0.5-0.2,0.8s-0.1,0.7-0.1,1.2c0,0.5,0,0.8,0,1.1c0,0.3,0,0.7,0,1.2
		c0,0.5,0,0.8,0,0.9s0,0.3,0,0.9c0,0.5,0,0.9,0,1.2c0,0.3,0,0.6,0,1.1c0,0.5,0.1,0.8,0.1,1.2c0.1,0.3,0.1,0.6,0.2,0.8
		c0.2,0.4,0.4,0.7,0.7,1c0.3,0.3,0.6,0.5,1,0.7c0.2,0.1,0.5,0.2,0.8,0.2s0.7,0.1,1.2,0.1c0.5,0,0.8,0,1.1,0c0.3,0,0.7,0,1.2,0
		c0.5,0,0.8,0,0.9,0s0.3,0,0.9,0c0.5,0,0.9,0,1.2,0s0.6,0,1.1,0c0.5,0,0.8-0.1,1.2-0.1c0.3-0.1,0.6-0.1,0.8-0.2
		c0.4-0.2,0.7-0.4,1-0.7c0.3-0.3,0.5-0.6,0.7-1c0.1-0.2,0.2-0.5,0.2-0.8c0.1-0.3,0.1-0.7,0.1-1.2c0-0.5,0-0.8,0-1.1s0-0.7,0-1.2
		s0-0.8,0-0.9s0-0.3,0-0.9c0-0.5,0-0.9,0-1.2c0-0.3,0-0.6,0-1.1c0-0.5-0.1-0.8-0.1-1.2s-0.1-0.6-0.2-0.8c-0.2-0.4-0.4-0.7-0.7-1
		c-0.3-0.3-0.6-0.5-1-0.7c-0.2-0.1-0.5-0.2-0.8-0.2c-0.3-0.1-0.7-0.1-1.2-0.1c-0.5,0-0.8,0-1.1,0S21.4,12.9,20.9,12.9z M23.2,16.8
		c0.9,0.9,1.3,1.9,1.3,3.2s-0.4,2.3-1.3,3.2c-0.9,0.9-1.9,1.3-3.2,1.3c-1.2,0-2.3-0.4-3.2-1.3c-0.9-0.9-1.3-1.9-1.3-3.2
		s0.4-2.3,1.3-3.2c0.9-0.9,1.9-1.3,3.2-1.3C21.2,15.5,22.3,16,23.2,16.8z M22,22c0.6-0.6,0.8-1.2,0.8-2c0-0.8-0.3-1.5-0.8-2
		c-0.6-0.6-1.2-0.8-2-0.8c-0.8,0-1.5,0.3-2,0.8c-0.6,0.6-0.8,1.2-0.8,2c0,0.8,0.3,1.5,0.8,2c0.6,0.6,1.2,0.8,2,0.8
		C20.8,22.9,21.5,22.6,22,22z M25.4,14.6c0.2,0.2,0.3,0.4,0.3,0.7s-0.1,0.5-0.3,0.7c-0.2,0.2-0.4,0.3-0.7,0.3
		c-0.3,0-0.5-0.1-0.7-0.3c-0.2-0.2-0.3-0.4-0.3-0.7s0.1-0.5,0.3-0.7c0.2-0.2,0.4-0.3,0.7-0.3C24.9,14.3,25.2,14.4,25.4,14.6z"/>
</g>
</svg>
