<?xml version="1.0" encoding="utf-8"?>
<!-- Generator: Adobe Illustrator 21.0.0, SVG Export Plug-In . SVG Version: 6.00 Build 0)  -->
<svg version="1.1" id="Слой_1" xmlns="http://www.w3.org/2000/svg" xmlns:xlink="http://www.w3.org/1999/xlink" x="0px" y="0px"
	 viewBox="0 0 40 40" style="enable-background:new 0 0 40 40;" xml:space="preserve">
<style type="text/css">
	.st0{fill:#CCCCCC;}
	.st1{fill:#3F6890;}
</style>
<path class="st0" d="M20,1c10.5,0,19,8.5,19,19s-8.5,19-19,19S1,30.5,1,20S9.5,1,20,1 M20,0C9,0,0,9,0,20s9,20,20,20s20-9,20-20
	S31,0,20,0L20,0z"/>
<path class="st0" d="M20,5c8.3,0,15,6.7,15,15s-6.7,15-15,15S5,28.3,5,20S11.7,5,20,5 M20,4C11.2,4,4,11.2,4,20s7.2,16,16,16
	s16-7.2,16-16S28.8,4,20,4L20,4z"/>
<g>
	<path class="st1" d="M29.8,15c-0.5,0.7-1.1,1.4-1.8,1.9c0,0.1,0,0.3,0,0.5c0,1-0.1,2-0.4,2.9c-0.3,1-0.7,1.9-1.3,2.8
		s-1.3,1.7-2.1,2.4s-1.8,1.2-2.9,1.7c-1.1,0.4-2.4,0.6-3.7,0.6c-2,0-3.9-0.5-5.6-1.6c0.3,0,0.6,0,0.9,0c1.7,0,3.2-0.5,4.5-1.6
		c-0.8,0-1.5-0.3-2.1-0.7s-1.1-1.1-1.3-1.8c0.2,0,0.5,0.1,0.7,0.1c0.3,0,0.6,0,1-0.1c-0.8-0.2-1.5-0.6-2.1-1.3
		c-0.6-0.7-0.8-1.4-0.8-2.3v0c0.5,0.3,1.1,0.4,1.7,0.5c-0.5-0.3-0.9-0.8-1.2-1.3c-0.3-0.5-0.4-1.1-0.4-1.7c0-0.7,0.2-1.3,0.5-1.8
		c0.9,1.1,2,2,3.3,2.7c1.3,0.7,2.7,1.1,4.2,1.1c-0.1-0.3-0.1-0.6-0.1-0.8c0-1,0.4-1.9,1.1-2.6c0.7-0.7,1.6-1.1,2.6-1.1
		c1.1,0,1.9,0.4,2.7,1.2c0.8-0.2,1.6-0.5,2.3-0.9c-0.3,0.9-0.8,1.5-1.6,2C28.4,15.5,29.1,15.3,29.8,15z"/>
</g>
</svg>
